PathFileType	4	(X/Y/Z)	./resultDataOpenSim/trcMotMarkerGrf/sub10/qtm-03-08.trc
DataRate	CameraRate	NumFrames	NumMarkers	Units	OrigDataRate	OrigDataStartFrame	OrigNumFrames
250.000000	250.000000	6	24	m	250.000000	63	496
Frame#	Time	L.Toe.Tip			R.Toe.Tip			L.Ankle.Lat			R.Ankle.Lat			L.Ankle.Med			R.Ankle.Med			L.Heel			R.Heel			L.Knee.Lat			R.Knee.Lat			L.Knee.Med			R.Knee.Med			L.Thigh.Upper			R.Thigh.Upper			L.ASIS			R.ASIS			V.Sacral			L.Acromium			R.Acromium			C7			L.Elbow			R.Elbow			L.Wrist.Lat			R.Wrist.Lat
		X1	Y1	Z1	X2	Y2	Z2	X3	Y3	Z3	X4	Y4	Z4	X5	Y5	Z5	X6	Y6	Z6	X7	Y7	Z7	X8	Y8	Z8	X9	Y9	Z9	X10	Y10	Z10	X11	Y11	Z11	X12	Y12	Z12	X13	Y13	Z13	X14	Y14	Z14	X15	Y15	Z15	X16	Y16	Z16	X17	Y17	Z17	X18	Y18	Z18	X19	Y19	Z19	X20	Y20	Z20	X21	Y21	Z21	X22	Y22	Z22	X23	Y23	Z23	X24	Y24	Z24

63	0.248	-1.4110541	0.053288636	-0.12998836	-0.70222638	0.03977742	0.04756752	-1.4226008	0.18980137	-0.16133258	-0.84516076	0.053325228	0.076997604	-1.4021764	0.18477276	-0.081250619	-0.82492227	0.079749604	-0.0062164236	-1.4665384	0.23315782	-0.10407478	-0.89412125	0.0292702	0.026770531	-1.1175619	0.42006784	-0.18810809	-0.82463944	0.45224666	0.1068606	-1.0988464	0.37429213	-0.076937848	-0.82667786	0.45908201	-0.021615918	-1.0265734	0.7889817	-0.21345654	-0.94285637	0.85294864	0.16476114	-0.94762994	0.89425749	-0.1645739	-0.89636488	0.93334736	0.071755938	-1.1149897	0.93232951	-0.0021620953	-0.95546651	1.3904645	-0.17974316	-0.98260777	1.3661531	0.14184476	-1.0503537	1.4121978	-0.023774616	-1.0509229	1.0617981	-0.28222686	-1.1440194	1.0614504	0.1594037	-0.84791969	0.91272906	-0.25398213	-1.1202046	0.83509096	0.24136088
64	0.252	-1.4066728	0.055533522	-0.13035781	-0.70221702	0.039727527	0.047498341	-1.4141158	0.1931209	-0.1612245	-0.8451039	0.053391423	0.076922694	-1.3937889	0.18741951	-0.081207505	-0.82488394	0.079625313	-0.0063894507	-1.4562146	0.23766978	-0.10349845	-0.89413743	0.029251612	0.026741299	-1.107346	0.41967235	-0.1885091	-0.82072066	0.45224897	0.10653038	-1.0876295	0.37328211	-0.077469684	-0.82369146	0.4589458	-0.021978544	-1.0198994	0.78890157	-0.21285102	-0.93718701	0.8535698	0.16520884	-0.94172711	0.89469187	-0.16397043	-0.89078836	0.93377364	0.072217261	-1.1099167	0.93271851	-0.0030996372	-0.94989669	1.3911702	-0.17910487	-0.97666753	1.366662	0.14260128	-1.0448046	1.4128063	-0.022982319	-1.045971	1.0628542	-0.28176351	-1.1367522	1.0612994	0.16031418	-0.84379113	0.91268438	-0.25322322	-1.1123627	0.83485223	0.24186523
65	0.256	-1.4017774	0.057992157	-0.13082007	-0.70220762	0.039679915	0.047427686	-1.4054298	0.19634306	-0.16107633	-0.84512629	0.05344461	0.076841393	-1.3838286	0.19014457	-0.081556057	-0.82484331	0.079520284	-0.006550823	-1.4456823	0.24204005	-0.10356794	-0.89415639	0.029233952	0.026731989	-1.0969875	0.41935959	-0.18885214	-0.81681647	0.45216842	0.10610176	-1.0764559	0.37259655	-0.07788203	-0.82089188	0.4587988	-0.022270826	-1.013277	0.7889559	-0.21228603	-0.93165528	0.85411461	0.16561153	-0.93582717	0.89521957	-0.16338412	-0.88504219	0.93415142	0.072604385	-1.1047283	0.93311571	-0.003704949	-0.94432353	1.3918801	-0.17851642	-0.97073137	1.3671948	0.1433232	-1.0392292	1.4134987	-0.022198423	-1.0410165	1.0639183	-0.28127158	-1.129434	1.0611476	0.16128681	-0.83976922	0.91259878	-0.25248364	-1.1044378	0.83463517	0.24233186
66	0.26	-1.396285	0.060713477	-0.13135505	-0.7021892	0.03963551	0.047349315	-1.3964998	0.19943957	-0.16093485	-0.84523093	0.053489414	0.076759237	-1.3721883	0.19284791	-0.082269151	-0.82479389	0.079434102	-0.0067075777	-1.4349945	0.24618481	-0.10424821	-0.89417855	0.029217256	0.026731495	-1.0865081	0.41912683	-0.18913394	-0.81293253	0.45200204	0.10557865	-1.065328	0.37225738	-0.078185353	-0.81821235	0.45864653	-0.022516345	-1.006725	0.78913952	-0.21178251	-0.92628057	0.85457717	0.16595247	-0.92992181	0.89584803	-0.16282521	-0.8792565	0.93456563	0.073007141	-1.0993684	0.93355006	-0.0039002013	-0.93873915	1.392594	-0.17797223	-0.96478472	1.3677587	0.14401749	-1.0336317	1.414266	-0.021434387	-1.0360607	1.0649984	-0.28074682	-1.1220843	1.0609869	0.16229772	-0.83585136	0.91247229	-0.25177573	-1.0964039	0.83442525	0.24276731
67	0.264	-1.3901123	0.063713899	-0.13195305	-0.70215587	0.039595372	0.04726184	-1.3873821	0.2024189	-0.16077974	-0.84539512	0.053541322	0.076678479	-1.3599549	0.19543502	-0.083017312	-0.82472684	0.079361967	-0.006868907	-1.424252	0.24996995	-0.10495019	-0.8942028	0.029206439	0.026723657	-1.075962	0.41896069	-0.18936819	-0.80920809	0.45181626	0.10502831	-1.0542698	0.37224848	-0.078374527	-0.81557196	0.45850898	-0.022776117	-1.0002487	0.78945268	-0.21136443	-0.92106649	0.85496301	0.16622822	-0.92400601	0.89659325	-0.16230607	-0.8735026	0.93501352	0.073448409	-1.0938744	0.9340388	-0.0037641788	-0.93316029	1.393316	-0.17747139	-0.95881819	1.3683662	0.14467918	-1.028024	1.4151017	-0.020706213	-1.0311243	1.066088	-0.28019355	-1.1147109	1.0607891	0.16324141	-0.83199532	0.91230385	-0.25109846	-1.0882322	0.83422084	0.24318167
68	0.268	-1.3831858	0.066938994	-0.13261396	-0.70210814	0.039559806	0.047166221	-1.378135	0.20533681	-0.16058463	-0.84556979	0.053618424	0.076599224	-1.3484631	0.19789768	-0.083445822	-0.82463052	0.079298197	-0.0070402857	-1.4135828	0.25336855	-0.10503162	-0.89422563	0.029207135	0.026696657	-1.0653811	0.41884841	-0.18957067	-0.80581814	0.45167261	0.10453387	-1.043338	0.37252005	-0.078442967	-0.81292454	0.45839521	-0.023090936	-0.99384772	0.78989257	-0.21102866	-0.91598729	0.8552821	0.16645476	-0.91810358	0.89746264	-0.16184366	-0.867782	0.93542952	0.073915046	-1.0883374	0.93457782	-0.0034637468	-0.92760589	1.394054	-0.17700941	-0.95282864	1.3690275	0.14529881	-1.0224121	1.4160002	-0.020018486	-1.0262306	1.0671775	-0.27961752	-1.1072694	1.0605066	0.16393406	-0.82814416	0.91210207	-0.25043692	-1.0798758	0.83403746	0.24359574
